<svg width="32" height="32" viewBox="0 0 32 32" fill="none" xmlns="http://www.w3.org/2000/svg">
<path d="M8.9375 28C8.21563 28 7.59744 27.7387 7.08294 27.216C6.56844 26.6933 6.31163 26.0658 6.3125 25.3333V8H6C5.44772 8 5 7.55228 5 7C5 6.44772 5.44772 6 6 6H11.5625V5C11.5625 4.44772 12.0102 4 12.5625 4H18.4375C18.9898 4 19.4375 4.44772 19.4375 5V6H25C25.5523 6 26 6.44772 26 7C26 7.55228 25.5523 8 25 8H24.6875V25.3333C24.6875 26.0667 24.4303 26.6947 23.9158 27.2173C23.4013 27.74 22.7835 28.0009 22.0625 28H8.9375ZM22.7158 8H8.5V26L22.7158 26V8ZM12 21.6667C12 22.219 12.4477 22.6667 13 22.6667C13.5523 22.6667 14 22.219 14 21.6667V11.6667C14 11.1144 13.5523 10.6667 13 10.6667C12.4477 10.6667 12 11.1144 12 11.6667V21.6667ZM17 21.6667C17 22.219 17.4477 22.6667 18 22.6667C18.5523 22.6667 19 22.219 19 21.6667V11.6667C19 11.1144 18.5523 10.6667 18 10.6667C17.4477 10.6667 17 11.1144 17 11.6667V21.6667Z" fill="#454545"/>
</svg>
